PathFileType	4	(X/Y/Z)	D:\TRACE\v60_Jaco2_6-2-23\JustArmDRS_Motion1_2-v60.trc
DataRate	CameraRate	NumFrames	NumMarkers	Units	OrigDataRate	OrigDataStartFrame	OrigNumFrames
100.00	100.00	      14	9	mm	100.00	4256	      6808
Frame#	Time	front left toe			Front right toe			aft left toe			aft right toe			Arm			FL body			FR body			AL Body			AR Body			
		X1	Y1	Z1	X2	Y2	Z2	X3	Y3	Z3	X4	Y4	Z4	X5	Y5	Z5	X6	Y6	Z6	X7	Y7	Z7	X8	Y8	Z8	X9	Y9	Z9	

4256	42.550	-243.50359	11.20776	-171.12180	163.94789	9.90875	-216.47337	-176.75995	31.18751	433.57907	225.56642	35.60067	420.98157	-2.68688	1087.31897	-663.34863	-144.75110	568.41071	-324.03790	13.83868	571.31580	-341.95837	-42.69252	604.78461	614.50690	113.25295	601.73059	598.81836	
4257	42.560	-243.10049	11.31227	-171.01082	164.44933	9.89585	-216.49353	-176.47484	31.32650	433.52792	225.96565	35.62205	420.82748	-2.18431	1087.27563	-663.14740	-144.61299	568.75232	-324.34122	14.41011	571.28882	-342.00391	-42.29717	604.73425	614.47986	113.67957	601.88983	598.94373	
4258	42.570	-242.84900	11.40831	-170.98695	165.20615	9.97537	-216.34300	-175.83078	31.19745	433.68848	226.29657	35.52405	420.80255	-1.60126	1087.30383	-662.82520	-144.13347	568.66370	-324.42627	15.02396	571.24567	-342.00586	-42.06640	604.72058	614.43768	114.02364	601.84460	598.99695	
4259	42.580	-242.28510	11.30119	-171.13011	165.76506	9.96264	-216.25345	-175.39085	31.01326	433.81061	226.84897	35.37130	420.76379	-1.28770	1087.27429	-662.60724	-143.64482	568.67706	-324.46323	15.42539	571.28998	-342.06317	-41.61806	604.59717	614.02368	114.68700	601.75128	599.09338	
4260	42.590	-241.44246	11.09670	-171.24280	166.33899	9.99619	-216.18970	-174.91508	31.04385	433.74899	227.26930	35.24084	420.80368	-0.87288	1087.23560	-662.22113	-143.22934	568.76086	-324.50241	16.60562	571.35822	-342.31888	-41.44847	604.71008	614.39404	114.96555	601.68964	599.09961	
4261	42.600	-240.73868	11.24006	-171.12212	166.77116	10.01905	-216.40067	-174.00279	30.86794	433.69885	228.21159	35.39450	420.97351	0.02090	1087.32739	-661.69525	-142.48218	568.62042	-324.70639	17.20400	571.40662	-342.30402	-41.37964	604.68170	613.99359	115.56036	601.75867	599.12915	
4262	42.610	-240.30605	11.48013	-171.06799	167.40858	10.11894	-216.30824	-173.43849	30.83726	433.63477	228.60568	35.48515	420.99374	0.66214	1087.58179	-661.21973	-142.29625	568.66064	-324.73279	17.75647	571.41034	-342.30142	-40.73339	604.68665	614.00928	116.00497	601.82312	599.10309	
4263	42.620	-239.98228	11.66809	-170.99364	168.21152	10.17905	-216.29845	-172.89648	30.90697	433.57217	229.20227	35.39718	421.06546	0.95450	1087.90247	-660.81201	-141.59322	568.65393	-324.69794	17.57032	571.25140	-341.95688	-40.05298	604.68182	614.00232	116.80979	602.12842	598.45697	
4264	42.630	-239.34985	11.62939	-171.01595	169.02586	10.34939	-216.26219	-172.46442	30.86189	433.54980	229.52393	35.08643	421.06073	1.58634	1088.23108	-659.94922	-140.97327	568.67194	-324.57315	18.41368	571.29559	-341.87604	-39.22795	604.70135	614.37854	117.38261	602.07318	598.51099	
4265	42.640	-238.42264	11.21965	-171.03296	169.41864	10.32579	-216.26886	-171.86865	30.72227	433.59344	230.53667	35.21947	421.12195	2.19679	1088.60437	-659.20667	-140.08556	568.59705	-324.56485	19.13427	571.35370	-341.83066	-38.74162	604.68628	614.40015	117.69880	602.04883	598.60101	
4266	42.650	-237.74162	11.22668	-171.10539	170.08495	10.25306	-216.32072	-171.15048	30.58816	433.69070	231.11726	35.08163	421.03787	2.72880	1089.23669	-658.55609	-139.02971	568.64075	-324.44421	19.75375	571.42554	-341.85739	-38.14826	604.65344	614.44647	118.48483	601.90588	598.58630	
4267	42.660	-237.27789	11.50966	-171.10728	170.64828	10.22432	-216.30643	-169.43784	29.65269	434.06036	231.93059	35.00756	421.05704	3.43592	1089.61377	-657.48145	-138.74176	568.91119	-324.64819	20.92496	571.60999	-342.13513	-37.51645	604.62927	614.53766	118.95438	601.85565	598.62494	
4268	42.670	-236.71043	11.80047	-171.08963	171.29083	10.33399	-216.25854	-168.84322	29.58056	433.90036	232.36461	34.99684	421.11725	4.09051	1090.11072	-656.73431	-138.28802	569.01587	-324.61392	22.37297	571.80872	-342.23712	-37.04422	604.51709	614.56439	119.77193	601.77167	598.70752	
4269	42.680	-235.75552	11.76484	-170.94289	171.92570	10.42004	-216.28087	-168.07150	29.43208	434.02304	233.23590	35.07738	421.22003	4.61442	1090.70679	-655.48932	-137.57443	569.14874	-324.55994	21.83527	571.59637	-341.90060	-36.47371	604.36902	614.66724	120.26412	601.67413	598.66058	
